# xmcd
#
# Track frame offsets:
#  150
#  4709
#  21253
#  36306
#  47764
#  61531
#  85832
#  105619
#  120861
#  139429
#  158639
#  181233
#  199699
#  217173
#  236370
#  250697
#  265716
#  284082
#  302387
#  312771
#
# Disc length: 4402 seconds
#
# Revision: 0
# Processed by: cddbd v1.5.1PL2 Copyright (c) Steve Scherf et al.
# Submitted via: Collectorz.com_Music_Collector 6.9
#
DISCID=07113014
DTITLE=Various Artist - Urban Car Tunes 2 - Long Distance Megamix 01
DYEAR=2006
DGENRE=*  Various
TTITLE0=Rollin' - Redman Ft. Kfam and Keith Murray
TTITLE1=Dead Ass Broke - 2 Live Crew
TTITLE2=Flirt - King T
TTITLE3=Under Fire - Dr. Dre
TTITLE4=Ya Better Bring A Gun - King T
TTITLE5=The Genius Is Back - Mix Master Spade and The Compton Posse
TTITLE6=Just Say No - Dr Dre Ft. All About Drugs
TTITLE7=Under Water Rhymes - Digital Underground
TTITLE8=Evon Is On - Dr Dre
TTITLE9=Get This Money - Too Short, E-40, Richie Rich and Jamesa
TTITLE10=In California - Daz Dillinger
TTITLE11=Dunk The Funk - Dr Dre Ft. Fila Fresh Crew
TTITLE12=I Hate To Go To Work - Fila Fresh Crew
TTITLE13=I Need A Rolex - Ice T Ft. Snoop Dogg, Dre and DJ Yella
TTITLE14=Flame On - Big Daddy Kane
TTITLE15=Cabbage Patch - Dr Dre
TTITLE16=L.A. Is The Place - Eazy E
TTITLE17=Playaz Hustlaz - Master P
TTITLE18=This Is Just A Bonus - Spyder D Ft. 2 Live Crew
TTITLE19=Can I Get Wit'cha - The Notorious B.I.G.
EXTD=
EXTT0=
EXTT1=
EXTT2=
EXTT3=
EXTT4=
EXTT5=
EXTT6=
EXTT7=
EXTT8=
EXTT9=
EXTT10=
EXTT11=
EXTT12=
EXTT13=
EXTT14=
EXTT15=
EXTT16=
EXTT17=
EXTT18=
EXTT19=
PLAYORDER=
